<?xml version="1.0" encoding="UTF-8"?>
<svg width="34px" height="30px" viewBox="0 0 34 30" version="1.1" xmlns="http://www.w3.org/2000/svg" xmlns:xlink="http://www.w3.org/1999/xlink">
    <title>FP</title>
    <g id="Desktop-Design" stroke="none" stroke-width="1" fill="none" fill-rule="evenodd">
        <g id="Township-Copy-6" transform="translate(-777.000000, -2510.000000)" fill="#000000" fill-rule="nonzero">
            <g id="FP" transform="translate(777.000000, 2510.000000)">
                <path d="M12.8285812,27.7837991 C12.8285812,26.2668417 12.7386822,24.8311497 12.8735306,23.4225464 C12.9623068,22.8280719 13.339765,22.3169351 13.8803989,22.0590905 C14.6894896,21.8875297 14.9681763,22.6098905 14.9591864,23.3683691 C14.9591864,24.8311497 14.9591864,26.2939301 14.9591864,27.8199173 L26.6460509,27.8199173 L26.6460509,22.5195955 C25.3694856,22.5195955 24.0929206,22.5195955 22.8163553,22.5195955 C21.9982747,22.5195955 20.9104975,22.7363037 20.8925176,21.4902314 C20.8745378,20.2441592 22.0342343,20.4066904 22.8792847,20.3886312 C24.1198903,20.3886312 25.3515057,20.3886312 26.6370609,20.3886312 C26.6984082,20.1988984 26.7317255,20.0011557 26.7359499,19.8017132 C26.2864551,17.3908343 27.3472626,15.7474637 29.2351409,14.3840078 C30.2863473,13.5423459 31.2860418,12.6377517 32.2287761,11.6751551 C32.8041295,11.1514436 33.4963514,10.9257059 33.9188765,11.6751551 C34.0905148,12.2129221 33.9861752,12.8011494 33.6401896,13.2462897 C32.399584,14.5194504 30.9432211,15.63008 29.7385749,16.8580933 C29.2647774,17.3459744 28.9754349,17.9846942 28.9204945,18.6639951 C28.8395854,21.8785004 28.8575651,25.1020348 28.9204945,28.3165403 C28.9204945,29.5174648 28.4709996,29.9960287 27.2663537,29.9960287 C18.7679055,29.9960287 10.2694575,29.9960287 1.77100945,29.9960287 C0.431514994,30.0502059 0,29.5535829 0,28.2894517 C0,19.4405328 0,10.591614 0,1.74269523 C0,0.198649198 0.224747392,0 1.79797914,0 L27.0505961,0 C28.623828,0 28.8485754,0.216708215 28.8485754,1.8059018 C28.8485754,3.61180359 28.8485754,5.47188244 28.8485754,7.30487275 C28.8485754,8.11752858 28.9384744,9.11077456 27.8057474,9.11077456 C26.6730206,9.11077456 26.7089801,8.20782368 26.7089801,7.35904982 C26.7089801,5.67053164 26.7089801,3.99104296 26.7089801,2.23931824 L14.9681763,2.23931824 C14.9681763,3.65695114 14.9681763,5.06555453 14.9681763,6.47415795 C14.9681763,7.25069572 14.8872673,8.00917448 13.9433282,8.03626299 C12.9993892,8.06335151 12.8195913,7.2236072 12.8285812,6.41095139 C12.8285812,5.03846602 12.8285812,3.70209868 12.8285812,2.22125921 L2.25646383,2.22125921 L2.25646383,15.4675489 L12.6577732,15.4675489 C12.7296923,15.3953128 12.7926216,15.3501653 12.7836317,15.3321062 C12.2532278,12.7677257 13.7545404,11.2959157 15.5525196,9.91440087 C16.5414081,9.15592211 17.3504987,8.18073514 18.3663569,7.45837442 C18.8463315,7.16209455 19.4396464,7.11832573 19.9575684,7.34099081 C20.6497905,7.83761379 20.3351441,8.50579748 19.7687807,9.02047947 C18.5101952,10.1581976 17.2965593,11.3410633 15.9930245,12.4155748 C15.2323348,12.9027717 14.8302504,13.7955064 14.9681763,14.6910111 C15.0010337,15.0906392 15.0010337,15.4923078 14.9681763,15.8919358 C14.9681763,17.4720999 14.7434289,17.6978375 13.1701972,17.6978375 L2.22050423,17.6978375 L2.22050423,27.7837991 L12.8285812,27.7837991 Z" id="Path"></path>
            </g>
        </g>
    </g>
</svg>