<?xml version="1.0" encoding="UTF-8"?>
<svg width="23px" height="23px" viewBox="0 0 23 23" version="1.1" xmlns="http://www.w3.org/2000/svg" xmlns:xlink="http://www.w3.org/1999/xlink">
    <title>FP</title>
    <g id="Desktop-Design" stroke="none" stroke-width="1" fill="none" fill-rule="evenodd">
        <g id="Township-Copy" transform="translate(-1176.000000, -515.000000)" fill="#000000" fill-rule="nonzero">
            <g id="FP" transform="translate(1176.000000, 515.000000)">
                <path d="M22.9997048,5.63204327 L22.9938891,5.46579201 C22.9856667,4.23889126 21.9783572,3.24075734 20.748024,3.24075734 L3.84781916,3.24075734 L3.84781916,0.287580853 C3.84781916,0.128748083 3.71927205,0 3.56023999,0 L1.95066734,0 C0.875171759,0 0,0.8729693 0,1.94585288 L0,1.97433014 L0,1.97453072 L0,1.97493178 C0.00982675112,18.7751243 0.0154416708,18.8310839 0.0170460069,18.8495659 C0.123733074,19.9242977 1.09095009,20.7663609 2.21958128,20.7663609 L19.419091,20.7663609 L19.419091,22.7124191 C19.419091,22.8712519 19.5476381,23 19.7066702,23 L20.7466907,23 C21.9892426,23 23,21.991855 23,20.7525302 L23,5.64241936 C23,5.64061443 22.9989973,5.63901008 22.9989973,5.63700463 C22.9987967,5.63540028 23,5.63399646 23,5.63239212 L22.9997048,5.63204327 Z M1.9508152,0.574940949 L3.2729935,0.574940949 L3.2729935,3.24077274 L1.84130963,3.24077274 C1.14299988,3.24077274 0.575090574,2.67286011 0.575090574,1.97454628 L0.575090574,1.94546732 C0.575090574,1.18980777 1.19218241,0.574971239 1.9508152,0.574971239 L1.9508152,0.574940949 Z M2.219743,20.1910807 C1.38328066,20.1910807 0.667156364,19.5768089 0.590558941,18.8113435 C0.585946462,18.5981684 0.578325943,7.28469881 0.575919182,3.30848896 C0.906212197,3.62193956 1.35123706,3.81566235 1.84131682,3.81566235 L20.7478402,3.81566235 C21.6631075,3.81566235 22.412756,4.55766572 22.418968,5.47776427 L22.4247836,5.64280907 C22.4243825,6.56470449 21.6715414,7.31435738 20.7464684,7.31435738 L19.7064479,7.31435738 C19.5476161,7.31435738 19.4188687,7.44290524 19.4188687,7.60193823 L19.4188687,20.190788 L2.219743,20.1910807 Z M22.4251369,20.7524219 C22.4251369,21.674728 21.6721,22.4249456 20.7468216,22.4249456 L19.9944008,22.4249456 L19.9944008,7.88983225 L20.7468216,7.88983225 C21.4128393,7.88983225 22.0122192,7.60004895 22.4251369,7.14038472 L22.4251369,20.7524219 Z" id="Shape"></path>
                <path d="M15.7131573,7 L5.28684271,7 C5.12841762,7 5,7.12821791 5,7.28684271 L5,17.7131573 C5,17.8715824 5.12821791,18 5.28684271,18 L15.7131573,18 C15.8715824,18 16,17.8717821 16,17.7131573 L16,7.28684271 C16,7.12821791 15.8717821,7 15.7131573,7 Z M5.57411556,17.4263146 L5.57411556,14.3763065 L8.60835181,14.3763065 L8.60835181,14.8203709 C8.60835181,14.978796 8.73656973,15.1072136 8.89519452,15.1072136 C9.05361961,15.1072136 9.18203723,14.9789957 9.18203723,14.8203709 L9.18203723,13.3583518 C9.18203723,13.1999267 9.05381932,13.0715091 8.89519452,13.0715091 C8.73676944,13.0715091 8.60835181,13.199727 8.60835181,13.3583518 L8.60835181,13.8028157 L5.57411556,13.8026156 L5.57411556,7.57376192 L10.2137513,7.57376192 L10.2137513,10.643024 L6.8050874,10.643024 C6.64666231,10.643024 6.51824469,10.7712419 6.51824469,10.9298667 C6.51824469,11.0882918 6.6464626,11.2167094 6.8050874,11.2167094 L14.1953223,11.2167094 C14.3537473,11.2167094 14.482165,11.0884915 14.482165,10.9298667 C14.482165,10.7714416 14.3539471,10.643024 14.1953223,10.643024 L10.7870168,10.643024 L10.7870168,7.57376192 L15.4264989,7.57376192 L15.4264989,13.8026156 L12.2802723,13.8026156 C12.1218473,13.8026156 11.9934296,13.9308336 11.9934296,14.0894583 C11.9934296,14.2478834 12.1216476,14.3763011 12.2802723,14.3763011 L15.4264989,14.3763011 L15.4264989,17.426514 L5.57411556,17.4263146 Z" id="Shape"></path>
            </g>
        </g>
    </g>
</svg>