<?xml version="1.0" encoding="UTF-8"?>
<svg width="30px" height="18px" viewBox="0 0 30 18" version="1.1" xmlns="http://www.w3.org/2000/svg" xmlns:xlink="http://www.w3.org/1999/xlink">
    <title>gallery</title>
    <g id="Desktop-Design" stroke="none" stroke-width="1" fill="none" fill-rule="evenodd">
        <g id="Township-Copy" transform="translate(-1312.000000, -520.000000)" fill="#000000" fill-rule="nonzero">
            <g id="gallery" transform="translate(1312.000000, 520.000000)">
                <path d="M24.5454507,15.8764358 L24.5454507,16.6500835 C24.5454507,17.3955585 23.9349058,18 23.1819032,18 L6.81813281,18 C6.06513022,18 5.45458527,17.3955585 5.45458527,16.6500835 L5.45458527,15.8764358 L1.69437238,16.8070703 C0.963784162,16.9878893 0.223338766,16.5481864 0.0406809966,15.8247574 C0.0137276185,15.7176924 0,15.6078059 0,15.4974273 L0,2.50274159 C0,1.75709687 0.61054495,1.15265539 1.36354753,1.15265539 C1.47504506,1.15265539 1.58620401,1.16624578 1.69435438,1.19292971 L5.45456727,2.12373395 L5.45456727,1.35008619 C5.45456727,0.604441481 6.06511222,0 6.8181148,0 L23.1818852,0 C23.9348878,0 24.5454327,0.604441481 24.5454327,1.35008619 L24.5454327,2.12373395 L28.3056456,1.19292971 C28.4137917,1.16624578 28.5249549,1.15265539 28.6364525,1.15265539 C29.389455,1.15265539 30,1.75709687 30,2.50274159 L30,15.4974273 C30,15.6078102 29.9862724,15.7176924 29.959319,15.8247574 C29.7766741,16.5482118 29.0362158,16.9879021 28.3056276,16.8070703 L24.5454507,15.8764358 Z M11.1688334,17.100084 L13.6110132,14.5613109 L10.9233897,11.900555 L6.3886599,16.7981178 C6.4504344,16.9739642 6.61935212,17.1002579 6.81808995,17.1002579 L11.1688334,17.100084 Z M12.424252,17.100084 L23.1818603,17.100084 C23.4328112,17.100084 23.6363619,16.8985469 23.6363619,16.650126 L23.6363619,12.3211098 L20.4429795,8.76438365 L12.424252,17.100084 Z M23.6365762,10.9665686 L23.6365762,1.35006837 C23.6365762,1.10146074 23.4330041,0.900110357 23.1820746,0.900110357 L6.81830423,0.900110357 C6.56735337,0.900110357 6.36380268,1.10148195 6.36380268,1.35006837 L6.36380268,15.4933032 L10.5741885,10.9457784 C10.749132,10.757004 11.047633,10.7505378 11.2307622,10.9316908 L14.2383154,13.9093479 L20.1256213,7.7894097 C20.3089348,7.59881079 20.6177944,7.6041144 20.7944093,7.80084555 L23.6365762,10.9665686 Z M1.47421448,2.06626746 C1.43822122,2.05731752 1.40105709,2.05284255 1.36389125,2.05284255 C1.11294039,2.05284255 0.909389689,2.25421414 0.909389689,2.50280056 L0.909389689,15.4974863 C0.909389689,15.5342801 0.914076991,15.5709094 0.922950164,15.6065411 C0.983888945,15.8476898 1.23065265,15.9943663 1.47422348,15.934041 L5.45493713,14.9487157 L5.45493713,3.0512402 L1.47421448,2.06626746 Z M28.5265929,15.934139 C28.7701766,15.9944686 29.0169232,15.8477878 29.0778663,15.6066392 C29.086739,15.5710057 29.0914267,15.5343786 29.0914267,15.4975843 L29.0914267,2.50289857 C29.0914267,2.25429094 28.8878546,2.05294056 28.6369252,2.05294056 C28.5997598,2.05294056 28.5625935,2.05741553 28.5266019,2.06636547 L24.5458883,3.05152108 L24.5458883,14.9489966 L28.5265929,15.934139 Z M10.9096754,8.55024522 C9.65442824,8.55024522 8.63691047,7.54289932 8.63691047,6.30020056 C8.63691047,5.05767152 9.65442824,4.05032562 10.9096754,4.05032562 C12.1647511,4.05032562 13.1822689,5.05767152 13.1822689,6.30020056 C13.1822689,7.54289932 12.1647511,8.55024522 10.9096754,8.55024522 Z M10.9096754,7.65028676 C11.662678,7.65028676 12.2732229,7.04584527 12.2732229,6.30020056 C12.2732229,5.55472556 11.662678,4.95028408 10.9096754,4.95028408 C10.1565014,4.95028408 9.54595644,5.55472556 9.54595644,6.30020056 C9.54595644,7.04584527 10.1565014,7.65028676 10.9096754,7.65028676 L10.9096754,7.65028676 Z" id="Shape"></path>
            </g>
        </g>
    </g>
</svg>