<?xml version="1.0" encoding="UTF-8"?>
<svg width="33px" height="21px" viewBox="0 0 33 21" version="1.1" xmlns="http://www.w3.org/2000/svg" xmlns:xlink="http://www.w3.org/1999/xlink">
    <title>noun-photo-4397308 (1)</title>
    <g id="Desktop-Design" stroke="none" stroke-width="1" fill="none" fill-rule="evenodd">
        <g id="Township-Copy" transform="translate(-1037.000000, -516.000000)" fill="#000000" fill-rule="nonzero">
            <g id="noun-photo-4397308-(1)" transform="translate(1037.000000, 516.000000)">
                <path d="M24.7026326,3.54751949 L22.8467072,3.54751949 C22.4450391,3.54326681 22.0522707,3.42551877 21.7099896,3.20677483 C21.367702,2.98803088 21.0886249,2.6765174 20.9028301,2.30548009 L20.3877447,1.24231157 C20.2016889,0.871267455 19.9228662,0.559502216 19.5805852,0.340744661 C19.2380431,0.122000714 18.8452616,0.00425267409 18.4438676,0 L14.5122679,0 C14.1108543,0.00212633705 13.7175703,0.118809508 13.3755503,0.338090992 C13.0332627,0.55710711 12.7554578,0.869940621 12.5722403,1.24231157 L12.0533315,2.35120484 C11.8667668,2.72118749 11.5874352,3.03190487 11.245128,3.24984591 C10.9030949,3.46805912 10.5105874,3.58527643 10.1094543,3.5895291 L8.28256345,3.5895291 C7.94231807,3.58447904 7.61431286,3.72268883 7.37296753,3.97280051 C7.13160914,4.22317754 6.99729352,4.56445294 7.00004874,4.91927565 L7.00004874,14.6698068 C6.99704062,15.0275622 7.13339689,15.3709877 7.37806977,15.6218615 C7.62274266,15.8725039 7.95432335,16.0088548 8.29738736,15.9995534 L24.7028675,15.9995534 L24.7026126,15.9995534 C25.0456636,16.0088562 25.3772573,15.8725039 25.6219302,15.6218615 C25.8666031,15.3709537 26.0029544,15.0275486 25.9999513,14.6698068 L25.9999513,4.87708912 C26.0029594,4.51959913 25.8666031,4.17590822 25.6219302,3.92530664 C25.3772573,3.67439887 25.0456766,3.53804793 24.7026126,3.54734938 L24.7026326,3.54751949 Z M25.1374392,14.6282871 C25.1430463,14.7494849 25.0986993,14.8674983 25.0156116,14.9525518 C24.9327817,15.0376053 24.8188555,15.0819896 24.7026326,15.0742871 L8.29715248,15.0742871 C8.18093612,15.081995 8.0670099,15.037608 7.98417345,14.9525518 C7.90108906,14.8674983 7.85674128,14.7494849 7.86234592,14.6282871 L7.86234592,4.87775594 C7.8567388,4.75655813 7.9010858,4.63881009 7.98417345,4.55375661 C8.06700337,4.46843776 8.18092959,4.42431882 8.29715248,4.43202126 L10.1533389,4.43202126 L10.1530839,4.43202126 C10.7153227,4.43627394 11.2673569,4.27680206 11.7475682,3.97193636 C12.2277404,3.66707066 12.6169073,3.22877306 12.8715628,2.70600034 L13.3904716,1.59710706 C13.496751,1.36905486 13.6624174,1.1763577 13.8683471,1.04159896 C14.0745378,0.906840223 14.3128362,0.835347668 14.5559758,0.835016531 L18.4875755,0.835016531 C18.7312305,0.832683385 18.9708011,0.903118283 19.1772268,1.03814239 C19.3839264,1.17316649 19.5490774,1.36719049 19.6530666,1.59710026 L20.1719754,2.70599353 C20.4258219,3.22933781 20.8147539,3.66818656 21.295187,3.97301824 C21.7756137,4.27814931 22.3279024,4.43709045 22.890389,4.43204168 L24.7172799,4.43204168 C24.8332418,4.42433379 24.947168,4.46845545 25.0300045,4.55377702 C25.1130889,4.63883051 25.1574366,4.75657855 25.1520864,4.87777636 L25.1374392,14.6282871 Z" id="Shape"></path>
                <path d="M16.4296543,4.000201 C15.2405483,4.01883922 14.1068137,4.50759141 13.2769319,5.359269 C12.4467989,6.21119771 11.9877554,7.35718936 12.0002485,8.54637386 C12.0125099,9.7357467 12.4951265,10.8719446 13.342662,11.7064832 C14.1901974,12.5410218 15.333713,13.0059727 16.5230701,12.9999421 C17.7124273,12.9937521 18.8510586,12.5170146 19.6899807,11.6739002 C20.5289028,10.8307607 20.9997489,9.68972873 21,8.50029312 C20.9943597,7.29641803 20.5088008,6.14433669 19.6509947,5.29950215 C18.7929248,4.45491874 17.6334507,3.98726826 16.4296543,4.00026378 L16.4296543,4.000201 Z M16.4296543,12.1811023 C15.4575769,12.1654072 14.5313285,11.7656725 13.8529963,11.0694515 C13.174413,10.3729668 12.7992429,9.43666133 12.8087853,8.46457112 C12.8183492,7.49248091 13.2119488,6.56352077 13.9039733,5.88078498 C14.5958031,5.19779806 15.5298361,4.8164705 16.5019762,4.81990017 C17.4740536,4.82311153 18.4054499,5.21083125 19.0928851,5.89848902 C19.7800065,6.58612168 20.1674814,7.51753025 20.170432,8.48962046 C20.1667535,9.47520844 19.7694784,10.4184197 19.0668944,11.1096936 C18.3645177,11.8007792 17.4150409,12.1828601 16.4296543,12.1705552 L16.4296543,12.1811023 Z" id="Shape"></path>
                <path d="M16.9557675,6.00027099 C16.1629116,6.01208206 15.4067341,6.33713853 14.8528787,6.90485072 C14.2990365,7.47254319 13.9924507,8.23641417 14.0001413,9.02925247 C14.0078444,9.82235369 14.3293125,10.580092 14.8942239,11.1366958 C15.4591354,11.6932996 16.2214128,12.0037436 17.0145973,11.9999659 C17.8074532,11.9960798 18.5667201,11.6782145 19.1262284,11.116188 C19.685717,10.5541417 20,9.79336665 20,9.00026543 C19.9989729,8.1973704 19.6767315,7.42812926 19.1046684,6.86429515 C18.5325988,6.30071082 17.7586803,5.98949123 16.9558332,6.00027099 L16.9557675,6.00027099 Z M16.9557675,11.1533913 L16.9557675,11.153648 C16.3896006,11.1449184 15.8498972,10.9122931 15.4547182,10.5068755 C15.0595589,10.101195 14.8407972,9.55582449 14.8466999,8.98968983 C14.8526055,8.4232791 15.0821509,7.88252946 15.4857896,7.48505862 C15.8891654,7.08785071 16.4335093,6.8665238 16.9996565,6.86932346 C17.5660798,6.87217457 18.1080903,7.09914974 18.5074104,7.50046579 C18.9069343,7.90178185 19.1310926,8.44507525 19.1313489,9.01120991 C19.1292948,9.58352322 18.8982051,10.1314506 18.489183,10.5320108 C18.0804107,10.9325578 17.5281197,11.15234 16.9557938,11.1425856 L16.9557675,11.1533913 Z" id="Shape"></path>
                <path d="M24.4800671,5.00209181 L23.5199329,5.00209181 C23.3865458,4.98927518 23.2542921,5.03577276 23.1552417,5.13055569 C23.0561913,5.22533939 23,5.35946497 23,5.50015261 C23,5.64053503 23.0561942,5.77466824 23.1552417,5.86944431 C23.2542921,5.96422801 23.3865458,6.01072711 23.5199329,5.99790819 L24.4800671,5.99790819 C24.6134542,6.01072482 24.7457079,5.96422724 24.8447583,5.86944431 C24.9438087,5.77466061 25,5.64053503 25,5.50015261 C25,5.35946497 24.9438058,5.22533939 24.8447583,5.13055569 C24.7457079,5.03577199 24.6134542,4.98927289 24.4800671,5.00209181 Z" id="Path"></path>
                <path d="M26.6541386,7.83503272 C30.1053788,8.96019681 32.1789642,10.6440922 32.1789642,12.2979849 C32.1789642,15.0507895 26.6872875,17.5483042 19.4054358,18.1448065 C19.1734392,18.1529159 18.9920473,18.3512083 19.0002688,18.5871773 C19.0084903,18.8234008 19.2029773,19.0080976 19.4349805,18.9997263 L19.4681235,18.9997263 C27.4311073,18.3585415 33,15.6056834 33,12.2980318 C33,10.1866665 30.8380173,8.31150465 26.9117737,7.02125936 C26.8061772,6.98594336 26.6910767,6.99483766 26.5921625,7.04637313 C26.4932484,7.09764676 26.4187422,7.18737861 26.3850868,7.29515353 C26.3167434,7.51934923 26.4357001,7.75845245 26.6538235,7.83509969 L26.6541386,7.83503272 Z" id="Path"></path>
                <path d="M16.5938907,19.6893375 L15.9853889,20.2955182 C15.9077897,20.372746 15.864091,20.4780802 15.864091,20.5877186 C15.864091,20.6976097 15.907789,20.802944 15.9853889,20.8801718 C16.148881,21.0399427 16.4088033,21.0399427 16.5722954,20.8801718 L17.8792036,19.5698139 L17.8792036,19.5695607 C17.9565521,19.4930913 18,19.3885155 18,19.2791299 C18,19.1699972 17.9565534,19.0651685 17.8792036,18.9886991 L16.5614945,17.6783412 C16.3980024,17.518311 16.1380801,17.518311 15.974588,17.6783412 C15.8969888,17.7555691 15.8532901,17.8606505 15.8532901,17.9705417 C15.8532901,18.0804328 15.8969881,18.185767 15.974588,18.2627421 L16.5793224,18.865377 C8.03247197,18.8362581 0.828018405,16.2082319 0.828018405,13.0973392 C0.828018405,11.4748031 2.70377369,9.91754173 6.22846549,8.8140927 C6.33720734,8.78522723 6.42962571,8.71255698 6.48387449,8.61329648 C6.53812005,8.51378318 6.5494192,8.3965478 6.51526651,8.28843274 C6.48136328,8.1803112 6.40476308,8.09118223 6.30355613,8.04155522 C6.20234918,7.99192821 6.08532021,7.986609 5.98009507,8.02636246 C2.0377687,9.26405592 0,11.0645907 0,13.0973146 C0,16.7781789 7.27645953,19.6636887 16.5941595,19.6896171 L16.5938907,19.6893375 Z" id="Path"></path>
            </g>
        </g>
    </g>
</svg>